<svg width="40" height="35" viewBox="0 0 40 35" fill="none" xmlns="http://www.w3.org/2000/svg">
<path d="M6.66667 16.0417H16.6667C17.1087 16.0417 17.5326 15.888 17.8452 15.6145C18.1577 15.341 18.3333 14.9701 18.3333 14.5833V5.83333C18.3333 5.44656 18.1577 5.07563 17.8452 4.80214C17.5326 4.52865 17.1087 4.375 16.6667 4.375H6.66667C6.22464 4.375 5.80072 4.52865 5.48816 4.80214C5.17559 5.07563 5 5.44656 5 5.83333V14.5833C5 14.9701 5.17559 15.341 5.48816 15.6145C5.80072 15.888 6.22464 16.0417 6.66667 16.0417ZM23.3333 16.0417H33.3333C33.7754 16.0417 34.1993 15.888 34.5118 15.6145C34.8244 15.341 35 14.9701 35 14.5833V5.83333C35 5.44656 34.8244 5.07563 34.5118 4.80214C34.1993 4.52865 33.7754 4.375 33.3333 4.375H23.3333C22.8913 4.375 22.4674 4.52865 22.1548 4.80214C21.8423 5.07563 21.6667 5.44656 21.6667 5.83333V14.5833C21.6667 14.9701 21.8423 15.341 22.1548 15.6145C22.4674 15.888 22.8913 16.0417 23.3333 16.0417ZM6.66667 30.625H16.6667C17.1087 30.625 17.5326 30.4714 17.8452 30.1979C18.1577 29.9244 18.3333 29.5534 18.3333 29.1667V20.4167C18.3333 20.0299 18.1577 19.659 17.8452 19.3855C17.5326 19.112 17.1087 18.9583 16.6667 18.9583H6.66667C6.22464 18.9583 5.80072 19.112 5.48816 19.3855C5.17559 19.659 5 20.0299 5 20.4167V29.1667C5 29.5534 5.17559 29.9244 5.48816 30.1979C5.80072 30.4714 6.22464 30.625 6.66667 30.625ZM28.3333 30.625C32.01 30.625 35 28.0088 35 24.7917C35 21.5746 32.01 18.9583 28.3333 18.9583C24.6567 18.9583 21.6667 21.5746 21.6667 24.7917C21.6667 28.0088 24.6567 30.625 28.3333 30.625Z" fill="white"/>
</svg>
