<svg width="20" height="22" viewBox="0 0 20 22" fill="none" xmlns="http://www.w3.org/2000/svg">
<g clip-path="url(#clip0_518_140)">
<path d="M20 10.989C20 4.9225 15.52 0 10 0C4.48 0 0 4.9225 0 10.989C0 14.3302 1.38 17.3415 3.54 19.3627C3.56 19.3848 3.58 19.3848 3.58 19.4067C3.76 19.5608 3.94 19.7148 4.14 19.8687C4.24 19.9347 4.32 20.0214 4.42 20.1094C6.07258 21.3419 8.02339 22.0005 10.02 22C12.0166 22.0005 13.9674 21.3419 15.62 20.1094C15.72 20.0434 15.8 19.9568 15.9 19.8894C16.08 19.7367 16.28 19.5828 16.46 19.4288C16.48 19.4067 16.5 19.4067 16.5 19.3848C18.62 17.3401 20 14.3302 20 10.989ZM10 20.6154C8.12 20.6154 6.4 19.9554 4.98 18.8568C5 18.6807 5.04 18.5061 5.08 18.3301C5.19917 17.8531 5.37396 17.3951 5.6 16.9675C5.82 16.5495 6.08 16.1755 6.4 15.8455C6.7 15.5155 7.06 15.2089 7.42 14.9669C7.8 14.7249 8.2 14.5489 8.64 14.4169C9.08342 14.2854 9.54075 14.2193 10 14.2203C11.3633 14.2096 12.6765 14.7849 13.66 15.8235C14.12 16.3295 14.48 16.9235 14.74 17.6041C14.88 18.0001 14.98 18.4181 15.04 18.8568C13.564 19.9982 11.8043 20.6122 10 20.6154ZM6.94 10.4404C6.76378 9.99655 6.67516 9.51665 6.68 9.03237C6.68 8.54975 6.76 8.06575 6.94 7.62575C7.12 7.18575 7.36 6.79112 7.66 6.46112C7.96 6.13112 8.32 5.8685 8.72 5.6705C9.12 5.4725 9.56 5.3845 10 5.3845C10.46 5.3845 10.88 5.4725 11.28 5.6705C11.68 5.8685 12.04 6.1325 12.34 6.46112C12.64 6.79112 12.88 7.18713 13.06 7.62575C13.24 8.06575 13.32 8.54975 13.32 9.03237C13.32 9.53837 13.24 10.0004 13.06 10.439C12.8863 10.8725 12.6423 11.2676 12.34 11.605C12.0332 11.937 11.674 12.205 11.28 12.3956C10.4535 12.7692 9.52647 12.7692 8.7 12.3956C8.30602 12.205 7.94684 11.937 7.64 11.605C7.33727 11.2725 7.09912 10.8772 6.94 10.4404ZM16.22 17.7361C16.22 17.6921 16.2 17.6701 16.2 17.6261C16.0033 16.9378 15.7134 16.2861 15.34 15.6929C14.9663 15.0953 14.507 14.5682 13.98 14.1322C13.5775 13.7992 13.1413 13.5187 12.68 13.2963C12.8899 13.144 13.0843 12.9674 13.26 12.7696C13.5582 12.4458 13.82 12.0839 14.04 11.6916C14.4829 10.8911 14.7117 9.96942 14.7 9.03237C14.7062 8.33871 14.5837 7.65094 14.34 7.01113C14.0994 6.39463 13.7531 5.83489 13.32 5.3625C12.8876 4.89504 12.3786 4.52181 11.82 4.2625C11.2374 3.99492 10.6113 3.86065 9.98 3.86787C9.34859 3.86108 8.72253 3.99582 8.14 4.26388C7.57657 4.52263 7.06639 4.90378 6.64 5.3845C6.21505 5.85968 5.87574 6.41908 5.64 7.03312C5.39631 7.67294 5.27381 8.36071 5.28 9.05437C5.28 9.53837 5.34 10.0004 5.46 10.439C5.58 10.901 5.74 11.319 5.96 11.7136C6.16 12.1096 6.44 12.4616 6.74 12.7916C6.92 12.9896 7.12 13.1642 7.34 13.3182C6.87729 13.5466 6.4409 13.8346 6.04 14.1763C5.52 14.6163 5.06 15.1429 4.68 15.7149C4.30282 16.3056 4.0126 16.958 3.82 17.6481C3.8 17.6921 3.8 17.7361 3.8 17.7581C2.22 15.9995 1.24 13.6263 1.24 10.989C1.24 5.6925 5.18 1.36263 10 1.36263C14.82 1.36263 18.76 5.6925 18.76 10.989C18.7574 13.5189 17.8441 15.9448 16.22 17.7361Z" fill="white"/>
</g>
<defs>
<clipPath id="clip0_518_140">
<rect width="20" height="22" fill="white"/>
</clipPath>
</defs>
</svg>
