<svg width="78" height="56" viewBox="0 0 78 56" fill="none" xmlns="http://www.w3.org/2000/svg">
<path d="M42.584 19.1911C42.9595 19.454 43.4689 19.6017 44 19.6017C44.5311 19.6017 45.0405 19.454 45.416 19.1911C45.7915 18.9282 46.0025 18.5717 46.0025 18.1999C46.0025 17.8281 45.7915 17.4716 45.416 17.2087L40.828 13.9999H48C50.6522 13.9999 53.1957 14.7374 55.0711 16.0502C56.9464 17.3629 58 19.1434 58 20.9999V33.5999C54.9936 33.603 52.0985 34.396 49.8873 35.8218C47.6762 37.2477 46.3102 39.2026 46.0596 41.2997C45.809 43.3968 46.692 45.4834 48.534 47.1466C50.3761 48.8098 53.0428 49.9284 56.0067 50.2811C58.9705 50.6338 62.0155 50.1949 64.5392 49.0512C67.0629 47.9076 68.8813 46.1425 69.6348 44.1052C70.3883 42.0679 70.0219 39.9068 68.608 38.0496C67.1942 36.1924 64.836 34.7743 62 34.0759V20.9999C62 18.4008 60.525 15.9081 57.8995 14.0703C55.274 12.2324 51.713 11.1999 48 11.1999H40.828L45.416 7.99111C45.602 7.86095 45.7495 7.70642 45.8501 7.53635C45.9507 7.36628 46.0025 7.184 46.0025 6.99991C46.0025 6.81583 45.9507 6.63355 45.8501 6.46348C45.7495 6.29341 45.602 6.13888 45.416 6.00871C45.23 5.87855 45.0093 5.77529 44.7663 5.70485C44.5234 5.6344 44.263 5.59814 44 5.59814C43.737 5.59814 43.4766 5.6344 43.2337 5.70485C42.9907 5.77529 42.77 5.87855 42.584 6.00871L34.584 11.6087C34.3977 11.7388 34.25 11.8933 34.1492 12.0633C34.0483 12.2334 33.9964 12.4158 33.9964 12.5999C33.9964 12.7841 34.0483 12.9664 34.1492 13.1365C34.25 13.3066 34.3977 13.4611 34.584 13.5911L42.584 19.1911ZM18 22.3999C21.0064 22.3968 23.9015 21.6039 26.1127 20.178C28.3238 18.7521 29.6898 16.7973 29.9404 14.7001C30.191 12.603 29.308 10.5164 27.466 8.85322C25.6239 7.19004 22.9572 6.07143 19.9933 5.71873C17.0295 5.36604 13.9845 5.80494 11.4608 6.9486C8.93714 8.09227 7.11867 9.85737 6.36519 11.8947C5.61172 13.932 5.97814 16.093 7.39196 17.9502C8.80578 19.8075 11.164 21.2255 14 21.9239V34.9999C14 37.599 15.475 40.0917 18.1005 41.9296C20.726 43.7674 24.287 44.7999 28 44.7999H35.172L30.584 48.0087C30.2085 48.2716 29.9975 48.6281 29.9975 48.9999C29.9975 49.3717 30.2085 49.7282 30.584 49.9911C30.9595 50.254 31.4689 50.4017 32 50.4017C32.5311 50.4017 33.0405 50.254 33.416 49.9911L41.416 44.3911C41.7879 44.1301 41.9978 43.777 42 43.4083V43.3915C41.9967 43.0238 41.787 42.6718 41.416 42.4115L33.416 36.8115C33.041 36.5486 32.5321 36.4008 32.0014 36.4005C31.4707 36.4003 30.9615 36.5476 30.586 36.8101C30.2105 37.0726 29.9993 37.4288 29.9989 37.8003C29.9985 38.1718 30.209 38.5282 30.584 38.7911L35.172 41.9999H28C25.3478 41.9999 22.8043 41.2624 20.9289 39.9497C19.0536 38.6369 18 36.8564 18 34.9999V22.3999Z" fill="white"/>
</svg>
