<svg width="72" height="72" viewBox="0 0 72 72" fill="none" xmlns="http://www.w3.org/2000/svg">
<g clip-path="url(#clip0_1_270)">
<path d="M47.5999 31.6998C47.5999 31.6998 49.5 23.0998 51.5 17.1998C51.5999 16.7998 51.7 16.4998 51.7 16.1998C51.7999 15.4998 51.9 14.7998 51.9 13.9998C51.9 11.1998 48.6 7.2998 46.4 7.2998C43.7 7.2998 40.2999 9.5998 37.7999 11.6998C37.2999 12.0998 36.7 12.0998 36.2 11.6998C33.8 9.5998 30.6 7.2998 27.6 7.2998C25.4 7.2998 22.1 11.1998 22.1 13.9998C22.1 15.8998 22.4 17.3998 23 18.5998C24.8 24.1998 26.2 31.2998 26.3 31.6998C22.8 35.2998 13.7 66.3998 13.7 66.3998C13.7 66.3998 16.2 69.6998 26.1 71.2998L26.2 70.3998L28.3 70.6998L28.2 71.5998C30.7 71.8998 33.6 72.0998 37 72.0998C40.4 72.0998 43.2999 71.8998 45.7999 71.5998L45.7 70.6998L47.7999 70.3998L47.9 71.2998C57.9 69.7998 60.2999 66.3998 60.2999 66.3998C60.2999 66.3998 50.8999 34.9998 47.5999 31.6998Z" fill="#00D1AE"/>
<path d="M37 33.5C29.6 33.5 26.2 32.4 26 32.3C25.3 32.1 25.5 29.4 26.2 29.6C26.2 29.6 30 30.7 37 30.7C44 30.7 47.5 29.7 47.5 29.7C48.2 29.5 48.5 32.1 47.8 32.4C47.7 32.4 44.5 33.5 37 33.5ZM31.3 43.6C30.5 43.6 26.1 71.2 26.1 71.2L28.2 71.4C28.2 71.4 32.1 43.6 31.3 43.6ZM42.7 43.6C43.5 43.6 47.9 71.2 47.9 71.2L45.8 71.4C45.8 71.4 41.9 43.6 42.7 43.6ZM46.8 7.3V1.9C46.8 1.1 47.4 0.5 48.2 0.5C49 0.5 49.6 1.1 49.6 1.9V9.2C48.7 8.2 47.7 7.5 46.8 7.3ZM24.5 9.1V1.9C24.5 1.1 25.1 0.5 25.9 0.5C26.7 0.5 27.3 1.1 27.3 1.9V7.3C26.4 7.4 25.3 8.1 24.5 9.1Z" fill="#00B89C"/>
</g>
<defs>
<clipPath id="clip0_1_270">
<rect width="72" height="72" fill="white"/>
</clipPath>
</defs>
</svg>
