<svg width="53" height="54" viewBox="0 0 53 54" fill="none" xmlns="http://www.w3.org/2000/svg">
<path d="M24.2916 20.25H28.7083V13.5H35.3333V9H28.7083V2.25H24.2916V9H17.6666V13.5H24.2916V20.25ZM15.4583 40.5C13.0291 40.5 11.0637 42.525 11.0637 45C11.0637 47.475 13.0291 49.5 15.4583 49.5C17.8874 49.5 19.8749 47.475 19.8749 45C19.8749 42.525 17.8874 40.5 15.4583 40.5ZM37.5416 40.5C35.1124 40.5 33.147 42.525 33.147 45C33.147 47.475 35.1124 49.5 37.5416 49.5C39.9707 49.5 41.9583 47.475 41.9583 45C41.9583 42.525 39.9707 40.5 37.5416 40.5ZM15.8337 33.1875L15.8999 32.9175L17.8874 29.25H34.3395C35.9958 29.25 37.4533 28.3275 38.2041 26.9325L46.7282 11.16L42.8857 9H42.8637L40.4345 13.5L34.3395 24.75H18.837L18.5499 24.1425L13.6033 13.5L11.5053 9L9.4295 4.5H2.20825V9H6.62492L14.5749 26.0775L11.5937 31.59C11.2403 32.22 11.0416 32.9625 11.0416 33.75C11.0416 36.225 13.0291 38.25 15.4583 38.25H41.9583V33.75H16.3858C16.0987 33.75 15.8337 33.5025 15.8337 33.1875Z" fill="#08F46C"/>
</svg>
