<svg width="20" height="22" viewBox="0 0 20 22" fill="none" xmlns="http://www.w3.org/2000/svg">
<path d="M16.6654 17.4168V9.62516C16.6654 9.48285 16.6352 9.3425 16.5774 9.21522C16.5195 9.08793 16.4355 8.97721 16.332 8.89183L10.4987 4.07933C10.3545 3.96033 10.179 3.896 9.9987 3.896C9.81839 3.896 9.64295 3.96033 9.4987 4.07933L3.66536 8.89183C3.56187 8.97721 3.47786 9.08793 3.42001 9.21522C3.36215 9.3425 3.33203 9.48285 3.33203 9.62516V17.4168C3.33203 17.6599 3.41983 17.8931 3.57611 18.065C3.73239 18.2369 3.94435 18.3335 4.16536 18.3335H7.4987C7.71971 18.3335 7.93167 18.2369 8.08795 18.065C8.24423 17.8931 8.33203 17.6599 8.33203 17.4168V14.6668C8.33203 14.4237 8.41983 14.1906 8.57611 14.0186C8.73239 13.8467 8.94435 13.7502 9.16537 13.7502H10.832C11.053 13.7502 11.265 13.8467 11.4213 14.0186C11.5776 14.1906 11.6654 14.4237 11.6654 14.6668V17.4168C11.6654 17.6599 11.7532 17.8931 11.9094 18.065C12.0657 18.2369 12.2777 18.3335 12.4987 18.3335H15.832C16.053 18.3335 16.265 18.2369 16.4213 18.065C16.5776 17.8931 16.6654 17.6599 16.6654 17.4168Z" fill="white" stroke="white" stroke-width="2" stroke-linecap="round" stroke-linejoin="round"/>
</svg>
