<svg width="97" height="82" viewBox="0 0 97 82" fill="none" xmlns="http://www.w3.org/2000/svg">
<path d="M18.43 74.8934C16.2071 74.8934 14.3035 74.2237 12.7191 72.8844C11.1348 71.5451 10.344 69.9369 10.3467 68.0601V13.3934C10.3467 11.5142 11.1389 9.90498 12.7232 8.56565C14.3075 7.22631 16.2098 6.55779 18.43 6.56006H47.429C48.5068 6.56006 49.5347 6.7309 50.5128 7.07256C51.4908 7.41423 52.349 7.89826 53.0873 8.52465L72.6894 25.0955C73.4304 25.7219 74.0029 26.4485 74.4071 27.2753C74.8113 28.1021 75.0133 28.97 75.0133 29.8788V40.7267H66.93V30.4767H50.7633C49.6182 30.4767 48.6576 30.1487 47.8816 29.4927C47.1056 28.8367 46.719 28.0258 46.7217 27.0601V13.3934H18.43V68.0601H42.68V74.8934H18.43ZM68.1425 49.3538L72.4873 53.0267L56.8258 66.1809V69.7684H61.0696L76.731 56.6142L80.9748 60.2017L64.8081 73.8684C64.404 74.2101 63.9486 74.4663 63.4421 74.6371C62.9355 74.808 62.4141 74.8934 61.8779 74.8934H52.7842C52.2453 74.8934 51.7738 74.7225 51.3696 74.3809C50.9654 74.0392 50.7633 73.6406 50.7633 73.1851V65.4976C50.7633 65.042 50.8644 64.6001 51.0665 64.1719C51.2686 63.7437 51.5717 63.3599 51.9758 63.0205L68.1425 49.3538ZM80.9748 60.2017L68.1425 49.3538L74.0029 44.3996C74.7439 43.7733 75.687 43.4601 76.8321 43.4601C77.9772 43.4601 78.9203 43.7733 79.6613 44.3996L86.8352 50.4642C87.5762 51.0906 87.9467 51.8878 87.9467 52.8559C87.9467 53.8239 87.5762 54.6212 86.8352 55.2476L80.9748 60.2017Z" fill="black"/>
</svg>
