<svg width="46" height="51" viewBox="0 0 46 51" fill="none" xmlns="http://www.w3.org/2000/svg">
<path d="M21.0834 44.625L14.9979 38.5688C12.6979 36.2667 10.7251 34.2125 9.07928 32.4063C7.4335 30.6 6.07586 28.9 5.00636 27.3063C3.93686 25.7125 3.15422 24.1719 2.65844 22.6844C2.16266 21.1969 1.91541 19.6385 1.91669 18.0094C1.91669 14.6802 2.92294 11.9085 4.93544 9.69425C6.94794 7.48 9.45558 6.37358 12.4584 6.375C14.1195 6.375 15.7007 6.76458 17.2021 7.54375C18.7035 8.32292 19.9972 9.42083 21.0834 10.8375C22.1695 9.42083 23.4632 8.32292 24.9646 7.54375C26.466 6.76458 28.0472 6.375 29.7084 6.375C32.2959 6.375 34.4681 7.18038 36.225 8.79113C37.982 10.4019 39.1799 12.4298 39.8188 14.875H35.7459C35.1709 13.4583 34.3243 12.3958 33.2063 11.6875C32.0882 10.9792 30.9222 10.625 29.7084 10.625C28.0792 10.625 26.6736 11.1123 25.4917 12.087C24.3097 13.0617 23.2077 14.3452 22.1854 15.9375H19.9813C18.991 14.3438 17.8646 13.0595 16.6022 12.0849C15.3397 11.1102 13.9585 10.6236 12.4584 10.625C10.6375 10.625 9.06394 11.3248 7.73761 12.7245C6.41128 14.1242 5.74875 15.8851 5.75003 18.0073C5.75003 19.176 5.97364 20.3625 6.42086 21.5666C6.86808 22.7708 7.66669 24.1613 8.81669 25.738C9.96669 27.3133 11.532 29.155 13.5125 31.263C15.4931 33.371 18.0167 35.9125 21.0834 38.8875C21.9139 38.0729 22.8882 37.1344 24.0063 36.0719C25.1243 35.0094 26.0188 34.124 26.6896 33.4156L27.1209 33.8938L28.0562 34.9308L28.9896 35.9656L29.4209 36.4438C28.7181 37.1521 27.8236 38.029 26.7375 39.0745C25.6514 40.12 24.6931 41.0493 23.8625 41.8625L21.0834 44.625ZM34.5 36.125V29.75H28.75V25.5H34.5V19.125H38.3334V25.5H44.0834V29.75H38.3334V36.125H34.5Z" fill="black"/>
</svg>
