<svg width="38" height="40" viewBox="0 0 38 40" fill="none" xmlns="http://www.w3.org/2000/svg">
<path d="M31.0333 35L21.0583 24.5C20.2667 25.1667 19.3562 25.6944 18.3271 26.0833C17.2979 26.4722 16.2028 26.6667 15.0417 26.6667C12.1653 26.6667 9.73117 25.6178 7.73933 23.52C5.7475 21.4222 4.75106 18.86 4.75 15.8333C4.75 12.8056 5.74644 10.2433 7.73933 8.14667C9.73222 6.05 12.1663 5.00111 15.0417 5C17.9181 5 20.3522 6.04889 22.344 8.14667C24.3358 10.2444 25.3323 12.8067 25.3333 15.8333C25.3333 17.0556 25.1486 18.2083 24.7792 19.2917C24.4097 20.375 23.9083 21.3333 23.275 22.1667L33.25 32.6667L31.0333 35ZM15.0417 23.3333C17.0208 23.3333 18.7034 22.6039 20.0893 21.145C21.4753 19.6861 22.1677 17.9156 22.1667 15.8333C22.1667 13.75 21.4737 11.9789 20.0878 10.52C18.7018 9.06111 17.0198 8.33222 15.0417 8.33333C13.0625 8.33333 11.3799 9.06278 9.994 10.5217C8.60806 11.9806 7.91561 13.7511 7.91667 15.8333C7.91667 17.9167 8.60964 19.6878 9.99558 21.1467C11.3815 22.6056 13.0636 23.3344 15.0417 23.3333Z" fill="black"/>
</svg>
