<svg width="67" height="54" viewBox="0 0 67 54" fill="none" xmlns="http://www.w3.org/2000/svg">
<g clip-path="url(#clip0_12_833)">
<path d="M39.2453 7.67249C34.2007 9.39824 30.8842 13.1917 30.7139 17.5275L30.7084 17.937L30.03 17.8852C23.3523 17.28 17.4731 14.4832 13.4363 9.94049C13.163 9.63262 12.7977 9.38531 12.3742 9.22146C11.9507 9.05762 11.4828 8.98254 11.0138 9.00318C10.5448 9.02382 10.0898 9.13951 9.69102 9.33954C9.29222 9.53956 8.96248 9.81746 8.73235 10.1475L8.46156 10.566L8.32477 10.7887C6.31756 14.13 5.00269 18.1912 5.48564 22.4955L5.56939 23.1097C6.35944 28.2015 9.7569 32.5935 16.1191 35.8875L16.6021 36.1282L16.3759 36.225C12.7049 37.7167 9.34652 38.367 5.69223 38.25C2.74423 38.16 1.65548 41.337 4.24614 42.4755C14.2906 46.8877 25.0748 48.249 34.3738 46.0755C45.708 43.4205 54.3398 36.5737 57.6424 27.1012L57.9969 25.9875C58.6613 23.7532 59.0354 21.474 59.1164 19.1835L59.1247 18.4365L60.2219 16.6837L61.4502 14.7442L62.0476 13.7677L62.377 13.212C63.1168 11.9407 63.65 10.8877 63.9794 9.99449L64.0185 9.86849L64.0409 9.82799C64.655 8.49374 63.5774 6.77249 61.4139 6.77249L61.0733 6.78824C60.8528 6.81009 60.6363 6.85315 60.4284 6.91649L60.1884 7.00199C59.3917 7.31382 58.5711 7.58437 57.7317 7.81199L56.7379 8.07074L55.9813 8.25074L53.8261 8.73224C50.0965 6.21674 45.0491 5.91074 39.8343 7.48574L39.2453 7.67249Z" fill="black"/>
</g>
<defs>
<clipPath id="clip0_12_833">
<rect width="67" height="54" fill="white"/>
</clipPath>
</defs>
</svg>
