<svg width="52" height="46" viewBox="0 0 52 46" fill="none" xmlns="http://www.w3.org/2000/svg">
<path d="M37.3281 0.5C32.6496 0.5 28.5534 2.58125 26 6.09922C23.4466 2.58125 19.3504 0.5 14.6719 0.5C10.9477 0.504342 7.37726 2.0367 4.74387 4.7609C2.11048 7.4851 0.629198 11.1787 0.625 15.0312C0.625 31.4375 24.1399 44.7172 25.1413 45.2656C25.4053 45.4125 25.7003 45.4894 26 45.4894C26.2997 45.4894 26.5947 45.4125 26.8587 45.2656C27.8601 44.7172 51.375 31.4375 51.375 15.0312C51.3708 11.1787 49.8895 7.4851 47.2561 4.7609C44.6227 2.0367 41.0523 0.504342 37.3281 0.5ZM26 41.4687C21.863 38.975 4.25 27.6148 4.25 15.0312C4.2536 12.173 5.35277 9.43293 7.30647 7.41186C9.26017 5.39079 11.9089 4.25372 14.6719 4.25C19.0785 4.25 22.7783 6.67812 24.3234 10.5781C24.46 10.922 24.6923 11.2162 24.9908 11.4232C25.2893 11.6302 25.6406 11.7407 26 11.7407C26.3594 11.7407 26.7107 11.6302 27.0092 11.4232C27.3077 11.2162 27.54 10.922 27.6766 10.5781C29.2217 6.67109 32.9215 4.25 37.3281 4.25C40.0911 4.25372 42.7398 5.39079 44.6935 7.41186C46.6472 9.43293 47.7464 12.173 47.75 15.0312C47.75 27.5961 30.1325 38.9727 26 41.4687Z" fill="#F8F8F8"/>
</svg>
